HIERARCHY
ROOT Hips
{
 OFFSET 0.000000 0.000000 0.000000
 CHANNELS 6 Xposition Yposition Zposition Yrotation Xrotation Zrotation
 JOINT Chest
 {
  OFFSET 0.000000 9.588913 -0.003946
  CHANNELS 3 Yrotation Xrotation Zrotation
  JOINT Chest2
  {
   OFFSET 0.000000 9.541882 0.008053
   CHANNELS 3 Yrotation Xrotation Zrotation
   JOINT Chest3
   {
    OFFSET 0.000000 9.501360 0.000000
    CHANNELS 3 Yrotation Xrotation Zrotation
    JOINT Chest4
    {
     OFFSET 0.000000 9.491660 0.000000
     CHANNELS 3 Yrotation Xrotation Zrotation
     JOINT Neck
     {
      OFFSET 0.000000 14.331917 0.000000
      CHANNELS 3 Yrotation Xrotation Zrotation
      JOINT Head
      {
       OFFSET 0.000000 8.884799 0.017034
       CHANNELS 3 Yrotation Xrotation Zrotation
       End Site
       {
        OFFSET 0.000000 16.896195 0.008993
       }
      }
     }
     JOINT RightCollar
     {
      OFFSET -2.923010 9.499495 0.000000
      CHANNELS 3 Yrotation Xrotation Zrotation
      JOINT RightShoulder
      {
       OFFSET -13.795216 0.000000 0.000000
       CHANNELS 3 Yrotation Xrotation Zrotation
       JOINT RightElbow
       {
        OFFSET -30.272209 0.000000 0.000000
        CHANNELS 3 Yrotation Xrotation Zrotation
        JOINT RightWrist
        {
         OFFSET -24.478199 0.000000 0.000000
         CHANNELS 3 Yrotation Xrotation Zrotation
         End Site
         {
          OFFSET -18.090752 0.000000 0.000000
         }
        }
       }
      }
     }
     JOINT LeftCollar
     {
      OFFSET 2.923010 9.499495 0.000000
      CHANNELS 3 Yrotation Xrotation Zrotation
      JOINT LeftShoulder
      {
       OFFSET 13.795216 0.000000 0.000000
       CHANNELS 3 Yrotation Xrotation Zrotation
       JOINT LeftElbow
       {
        OFFSET 30.272209 0.000000 0.000000
        CHANNELS 3 Yrotation Xrotation Zrotation
        JOINT LeftWrist
        {
         OFFSET 24.478199 0.000000 0.000000
         CHANNELS 3 Yrotation Xrotation Zrotation
         End Site
         {
          OFFSET 18.090752 0.000000 0.000000
         }
        }
       }
      }
     }
    }
   }
  }
 }
 JOINT RightHip
 {
  OFFSET -7.826875 0.019532 0.001973
  CHANNELS 3 Yrotation Xrotation Zrotation
  JOINT RightKnee
  {
   OFFSET 0.000000 -40.546152 -0.001885
   CHANNELS 3 Yrotation Xrotation Zrotation
   JOINT RightAnkle
   {
    OFFSET 0.000000 -39.417092 -0.003189
    CHANNELS 3 Yrotation Xrotation Zrotation
    JOINT RightToe
    {
     OFFSET 0.000000 -7.579396 17.243563
     CHANNELS 3 Yrotation Xrotation Zrotation
     End Site
     {
      OFFSET 0.000000 -1.500329 6.694466
     }
    }
   }
  }
 }
 JOINT LeftHip
 {
  OFFSET 7.826875 0.019532 0.001973
  CHANNELS 3 Yrotation Xrotation Zrotation
  JOINT LeftKnee
  {
   OFFSET 0.000000 -40.546152 -0.001885
   CHANNELS 3 Yrotation Xrotation Zrotation
   JOINT LeftAnkle
   {
    OFFSET 0.000000 -39.417092 -0.003189
    CHANNELS 3 Yrotation Xrotation Zrotation
    JOINT LeftToe
    {
     OFFSET 0.000000 -7.579396 17.243563
     CHANNELS 3 Yrotation Xrotation Zrotation
     End Site
     {
      OFFSET 0.000000 -1.500329 6.694466
     }
    }
   }
  }
 }
}
MOTION
Frames: 14
Frame Time: 0.008333
0.000000 87.345680 0.000000 0.000000 -5.767889 0.000000 0.000000 11.653876 0.000000 0.000000 -5.885988 0.000000 0.000000 -0.000000 0.000000 0.000000 -0.000000 0.000000 0.000000 12.528808 0.000000 0.000000 0.711711 0.000000 0.000000 -0.000000 0.000000 0.000000 -0.000000 0.000000 2.309063 -0.000000 0.000000 -2.309063 -0.000000 -0.000000 0.000000 -0.000000 0.000000 0.000000 0.000000 0.000000 -2.309063 0.000000 0.000000 2.309063 -0.000000 0.000000 0.000000 8.520374 0.000000 0.000000 1.905768 0.000000 -0.000000 -4.658254 0.000000 0.000000 -0.000000 0.000000 0.000000 8.520374 0.000000 0.000000 1.905768 0.000000 -0.000000 -4.658254 0.000000 0.000000 -0.000000 0.000000
15.076776 88.430429 5.434205 45.345832 -6.097286 -1.523969 0.952635 2.419066 0.379881 0.529248 1.383799 0.258103 0.662582 1.729371 0.324649 0.529248 1.383799 0.258103 3.639142 24.041356 -0.330690 4.026935 0.295450 -1.191045 -2.365213 -2.185372 -4.592399 3.055457 -6.980910 84.295149 93.451995 -28.043324 42.891848 23.357490 -1.441737 -22.842193 -12.297797 -5.234028 1.042281 -5.103315 -9.022714 -91.124272 -32.901420 8.303234 -39.070657 -20.253082 -4.274512 16.016954 -7.172648 9.476330 -7.583426 -0.473414 1.006640 -0.687448 5.097512 -3.921040 7.930156 0.010861 -0.118959 -0.002498 15.512680 5.301174 11.195593 -2.865273 2.161219 1.029374 -2.435083 -3.665907 -8.395500 0.020448 0.116272 0.009131
15.075014 88.430514 5.438867 45.347052 -6.101489 -1.526041 0.953949 2.417479 0.377112 0.529721 1.382490 0.256271 0.663166 1.727736 0.322360 0.529721 1.382490 0.256271 3.641097 24.045416 -0.331294 4.029282 0.300499 -1.192153 -2.359442 -2.184150 -4.591752 3.057968 -6.982769 84.290201 93.445634 -28.043597 42.898053 23.356223 -1.441824 -22.842982 -12.305595 -5.228813 1.046954 -5.098440 -9.023942 -91.123645 -32.901593 8.306053 -39.071041 -20.249833 -4.277615 16.015536 -7.177439 9.484115 -7.573694 -0.471909 1.001972 -0.691728 5.079949 -3.917311 7.928230 0.009744 -0.117180 -0.002033 15.517870 5.304107 11.201205 -2.867515 2.162638 1.031908 -2.437423 -3.668201 -8.399356 0.020709 0.117248 0.008710
15.073120 88.430542 5.443994 45.346558 -6.106084 -1.527604 0.955301 2.416082 0.374333 0.530247 1.381394 0.254203 0.663815 1.726369 0.319774 0.530247 1.381394 0.254203 3.644121 24.049867 -0.331706 4.032761 0.306073 -1.193301 -2.352974 -2.183557 -4.592737 3.064600 -6.983644 84.287126 93.443377 -28.042068 42.898769 23.353519 -1.439086 -22.847146 -12.314638 -5.223638 1.052268 -5.091855 -9.025468 -91.121920 -32.900599 8.306066 -39.073474 -20.247057 -4.278416 16.014795 -7.178051 9.491268 -7.563544 -0.473437 0.999757 -0.696250 5.066515 -3.915696 7.925418 0.008265 -0.115207 -0.001509 15.525708 5.307150 11.209458 -2.870597 2.164834 1.029589 -2.439966 -3.671479 -8.401372 0.021552 0.118033 0.008667
15.071095 88.430486 5.449400 45.343646 -6.110705 -1.529594 0.957142 2.414503 0.371608 0.531188 1.380407 0.252317 0.664983 1.725137 0.317419 0.531188 1.380407 0.252317 3.647736 24.054643 -0.331467 4.036742 0.312057 -1.193876 -2.350339 -2.181929 -4.593079 3.076798 -6.984859 84.284369 93.443328 -28.040542 42.897677 23.352064 -1.435376 -22.848060 -12.322256 -5.218726 1.056689 -5.085655 -9.028163 -91.119511 -32.896896 8.306835 -39.079840 -20.246935 -4.276446 16.013764 -7.172231 9.497228 -7.557133 -0.477579 0.999563 -0.699059 5.076172 -3.916327 7.922502 0.008616 -0.115222 0.000155 15.535630 5.311534 11.218994 -2.874860 2.164782 1.026011 -2.439219 -3.673813 -8.403207 0.022601 0.118689 0.008969
15.069130 88.430343 5.454919 45.339429 -6.115802 -1.532389 0.959774 2.412579 0.369059 0.532541 1.379532 0.250761 0.666668 1.724046 0.315477 0.532541 1.379532 0.250761 3.651170 24.060006 -0.329979 4.040243 0.318720 -1.193054 -2.352034 -2.178931 -4.592094 3.092635 -6.987724 84.280715 93.442566 -28.038148 42.895841 23.352006 -1.435334 -22.845296 -12.328194 -5.211949 1.060247 -5.080063 -9.031692 -91.116186 -32.893868 8.311870 -39.089473 -20.248484 -4.275203 16.012778 -7.161868 9.502971 -7.559426 -0.481786 0.999294 -0.699977 5.127334 -3.918766 7.922297 0.013186 -0.119426 0.003554 15.546394 5.317510 11.228313 -2.881828 2.162852 1.024703 -2.434501 -3.675359 -8.405308 0.023267 0.119373 0.008524
15.067464 88.430067 5.459816 45.336475 -6.119406 -1.533552 0.962559 2.410221 0.366144 0.533856 1.378437 0.249018 0.668305 1.722678 0.313302 0.533856 1.378437 0.249018 3.653938 24.065408 -0.327758 4.042845 0.325382 -1.191282 -2.351390 -2.174955 -4.592583 3.101959 -6.991727 84.277254 93.439483 -28.037303 42.897938 23.350601 -1.437044 -22.845031 -12.333519 -5.204913 1.063220 -5.077373 -9.034273 -91.111540 -32.894619 8.318599 -39.097320 -20.247363 -4.276956 16.008615 -7.153864 9.507054 -7.564208 -0.482426 0.998513 -0.701672 5.175864 -3.921179 7.923517 0.017968 -0.123470 0.006832 15.555167 5.322223 11.234951 -2.887931 2.161408 1.023609 -2.431694 -3.676675 -8.405465 0.023323 0.119822 0.006931
15.066121 88.429674 5.464033 45.333756 -6.121463 -1.533567 0.965568 2.407662 0.362521 0.535216 1.377028 0.247209 0.669997 1.720919 0.311043 0.535216 1.377028 0.247209 3.656662 24.070937 -0.325386 4.045365 0.332192 -1.189335 -2.347211 -2.170063 -4.593544 3.103899 -6.994975 84.274437 93.435713 -28.039452 42.906231 23.348892 -1.433800 -22.847665 -12.339026 -5.198814 1.066222 -5.077946 -9.036259 -91.107421 -32.896194 8.323713 -39.100667 -20.243680 -4.279335 16.003934 -7.148197 9.510455 -7.558055 -0.481286 0.997736 -0.705836 5.163443 -3.920947 7.922272 0.017299 -0.122035 0.007395 15.562953 5.325711 11.240249 -2.889462 2.159964 1.021266 -2.434240 -3.677630 -8.403744 0.023855 0.120216 0.005162
15.065043 88.429240 5.468136 45.329603 -6.124149 -1.535420 0.968920 2.405462 0.358659 0.536777 1.375642 0.245771 0.671942 1.719186 0.309249 0.536777 1.375642 0.245771 3.659766 24.077287 -0.322274 4.048143 0.340005 -1.186673 -2.341516 -2.164605 -4.591200 3.105713 -6.999216 84.271291 93.431735 -28.041547 42.912495 23.347617 -1.430673 -22.846125 -12.343656 -5.191790 1.070303 -5.080250 -9.039992 -91.104416 -32.895077 8.327242 -39.102003 -20.239788 -4.282467 16.005223 -7.142030 9.514077 -7.544769 -0.480968 0.998670 -0.712416 5.125350 -3.919744 7.921206 0.014740 -0.119195 0.006733 15.573381 5.329514 11.247738 -2.889312 2.158183 1.018909 -2.439481 -3.679122 -8.402808 0.025132 0.121332 0.004601
15.064440 88.428816 5.472213 45.324355 -6.128772 -1.538780 0.972210 2.404061 0.354656 0.538516 1.374529 0.244521 0.674110 1.717796 0.307692 0.538516 1.374529 0.244521 3.663054 24.084178 -0.317481 4.050740 0.348449 -1.182227 -2.334704 -2.158750 -4.587084 3.107390 -7.005827 84.268480 93.426273 -28.042687 42.915016 23.346658 -1.432613 -22.842410 -12.347186 -5.183240 1.075456 -5.082993 -9.043856 -91.101995 -32.892775 8.330827 -39.103581 -20.237320 -4.286974 16.010029 -7.135508 9.518102 -7.531005 -0.478519 1.002767 -0.718300 5.081803 -3.919035 7.921085 0.012407 -0.117300 0.005454 15.586139 5.335481 11.257324 -2.891803 2.155511 1.016528 -2.442940 -3.681282 -8.402792 0.026068 0.123252 0.005037
15.064389 88.428401 5.475897 45.319955 -6.134232 -1.541847 0.974361 2.402612 0.350770 0.539766 1.373334 0.243286 0.675667 1.716304 0.306151 0.539766 1.373334 0.243286 3.666629 24.091902 -0.312317 4.053579 0.357914 -1.177443 -2.326871 -2.152574 -4.585579 3.108808 -7.010916 84.268252 93.422414 -28.042605 42.916211 23.345624 -1.434871 -22.842431 -12.348649 -5.174508 1.080196 -5.086194 -9.044586 -91.100329 -32.892047 8.333837 -39.105908 -20.238571 -4.290951 16.012645 -7.130031 9.522763 -7.517918 -0.477810 1.007968 -0.719527 5.025967 -3.917783 7.918583 0.009023 -0.114666 0.003273 15.597659 5.342914 11.266539 -2.896358 2.152343 1.013661 -2.444391 -3.683979 -8.401970 0.026157 0.125589 0.005251
15.064549 88.427975 5.478853 45.318041 -6.138024 -1.544490 0.974732 2.400278 0.347694 0.539870 1.371823 0.242027 0.675791 1.714417 0.304575 0.539870 1.371823 0.242027 3.670832 24.100171 -0.308206 4.057360 0.368099 -1.173948 -2.316802 -2.146851 -4.586500 3.109933 -7.012764 84.270385 93.420588 -28.041484 42.916711 23.344871 -1.434271 -22.842322 -12.346805 -5.167845 1.083918 -5.091739 -9.042194 -91.097864 -32.891901 8.334415 -39.108551 -20.243430 -4.293539 16.014467 -7.126936 9.526024 -7.511344 -0.481436 1.011356 -0.718676 4.998634 -3.916842 7.916414 0.007978 -0.114091 0.002835 15.605731 5.347733 11.273455 -2.901008 2.151455 1.011903 -2.445653 -3.688215 -8.400686 0.025842 0.128158 0.005007
15.064748 88.427578 5.481304 45.315069 -6.141006 -1.547556 0.975652 2.398014 0.344960 0.540312 1.370536 0.240904 0.676339 1.712809 0.303171 0.540312 1.370536 0.240904 3.674611 24.107794 -0.304108 4.060669 0.377478 -1.170368 -2.308979 -2.142226 -4.585443 3.108577 -7.014243 84.271275 93.415743 -28.042782 42.922328 23.346005 -1.431424 -22.838118 -12.347248 -5.164266 1.089294 -5.096975 -9.039066 -91.094632 -32.889101 8.332112 -39.111124 -20.247323 -4.294440 16.015910 -7.122735 9.528496 -7.508181 -0.484132 1.012863 -0.719286 4.997966 -3.916311 7.915806 0.008963 -0.115606 0.004104 15.613762 5.350605 11.279568 -2.901042 2.152935 1.010989 -2.449210 -3.693716 -8.398707 0.025550 0.130732 0.004391
15.064894 88.427234 5.483258 45.308983 -6.143503 -1.550814 0.978362 2.395533 0.342630 0.541977 1.369274 0.240234 0.678417 1.711232 0.302338 0.541977 1.369274 0.240234 3.676516 24.114967 -0.299981 4.061910 0.386215 -1.166326 -2.307425 -2.137431 -4.582981 3.106588 -7.016386 84.269233 93.408556 -28.046935 42.933163 23.347744 -1.428187 -22.832999 -12.351293 -5.161639 1.094541 -5.100207 -9.036909 -91.092306 -32.884424 8.328944 -39.112568 -20.247538 -4.292775 16.013034 -7.115196 9.530658 -7.506463 -0.485998 1.012429 -0.719455 5.011965 -3.915952 7.914219 0.011263 -0.117651 0.006544 15.623956 5.352839 11.284931 -2.896356 2.154837 1.010606 -2.453474 -3.698899 -8.396248 0.025307 0.133190 0.003864
